<?xml version="1.0" encoding="UTF-8" standalone="no"?>
<svg width="89px" height="50px" viewBox="0 0 89 50" version="1.1" xmlns="http://www.w3.org/2000/svg" xmlns:xlink="http://www.w3.org/1999/xlink">
    <!-- Generator: Sketch 39.1 (31720) - http://www.bohemiancoding.com/sketch -->
    <title>Page 1</title>
    <desc>Created with Sketch.</desc>
    <defs>
        <polygon id="path-1" points="0 49.5230993 92.096368 49.5230993 92.096368 0.000581113801 0 0.000581113801"></polygon>
    </defs>
    <g id="Payment-method" stroke="none" stroke-width="1" fill="none" fill-rule="evenodd">
        <g id="Desktop-Payment-Method-added-credit-card" transform="translate(-513.000000, -294.000000)">
            <g id="Page-1" transform="translate(510.000000, 294.000000)">
                <polygon id="Stroke-1" stroke="#182849" stroke-linecap="round" stroke-linejoin="round" points="13.2645036 20.9274576 0.726973366 20.9274576"></polygon>
                <path d="M60.2767554,17.8506538 L60.2767554,5.08503632 C60.2767554,2.6777724 62.227845,0.726682809 64.635109,0.726682809 L87.0108959,0.726682809 C89.4181598,0.726682809 91.3692494,2.6777724 91.3692494,5.08503632 L91.3692494,40.6724455 C91.3692494,43.0797094 89.4181598,45.030799 87.0108959,45.030799 L66.7082324,45.030799" id="Stroke-3" stroke="#182849" stroke-linecap="round"></path>
                <path d="M64.4041162,8.38910412 L72.6457627,8.38910412" id="Stroke-5" stroke="#182849" stroke-linecap="round"></path>
                <path d="M64.4041162,13.0983051 L72.6457627,13.0983051" id="Stroke-7" stroke="#182849" stroke-linecap="round"></path>
                <path d="M66.708523,37.468184 L72.6460533,37.468184" id="Stroke-9" stroke="#182849" stroke-linecap="round"></path>
                <path d="M66.030799,20.2987409 L87.0671186,20.2987409" id="Stroke-11" stroke="#182849" stroke-linecap="round"></path>
                <path d="M64.4041162,26.0218402 L87.0675545,26.0218402" id="Stroke-13" stroke="#182849" stroke-linecap="round"></path>
                <path d="M66.708523,31.7450847 L87.067845,31.7450847" id="Stroke-15" stroke="#182849" stroke-linecap="round"></path>
                <path d="M61.7725424,48.796707 L22.5894915,48.796707 C19.862615,48.796707 17.6529298,46.5870218 17.6529298,43.8601453 L17.6529298,22.7860533 C17.6529298,20.0606295 19.862615,17.8509443 22.5894915,17.8509443 L61.7725424,17.8509443 C64.4979661,17.8509443 66.7091041,20.0606295 66.7091041,22.7860533 L66.7091041,43.8601453 C66.7091041,46.5870218 64.4979661,48.796707 61.7725424,48.796707 L61.7725424,48.796707 Z" id="Stroke-17" stroke="#182849" stroke-linecap="round"></path>
                <path d="M13.3197094,26.1844068 L4.32842615,26.1844068" id="Stroke-19" stroke="#182849" stroke-linecap="round"></path>
                <path d="M13.3197094,30.8384019 L8.88726392,30.8384019" id="Stroke-21" stroke="#182849" stroke-linecap="round"></path>
                <mask id="mask-2" fill="white">
                    <use xlink:href="#path-1"></use>
                </mask>
                <g id="Clip-24"></g>
                <polygon id="Fill-23" fill="#182849" mask="url(#mask-2)" points="17.1631961 30.0703148 67.2653753 30.0703148 67.2653753 24.1618402 17.1631961 24.1618402"></polygon>
                <path d="M28.9827603,38.4148184 C28.3028571,38.4148184 27.6810654,38.6472639 27.1769492,39.0264407 C26.6713801,38.6472639 26.0510412,38.4148184 25.3696852,38.4148184 C23.7004358,38.4148184 22.3464407,39.7688136 22.3464407,41.438063 C22.3464407,43.1073123 23.7004358,44.4613075 25.3696852,44.4613075 C26.0510412,44.4613075 26.6713801,44.228862 27.1769492,43.8496852 C27.6810654,44.228862 28.3028571,44.4613075 28.9827603,44.4613075 C30.6520097,44.4613075 32.0060048,43.1073123 32.0060048,41.438063 C32.0060048,39.7688136 30.6520097,38.4148184 28.9827603,38.4148184 L28.9827603,38.4148184 Z" id="Stroke-25" stroke="#182849" stroke-linecap="round" mask="url(#mask-2)"></path>
                <path d="M22.105569,33.2318644 L39.8135593,33.2318644" id="Stroke-26" stroke="#182849" stroke-linecap="round" mask="url(#mask-2)"></path>
            </g>
        </g>
    </g>
</svg>